<svg fill="none" height="24" viewBox="0 0 24 24" width="24" xmlns="http://www.w3.org/2000/svg"><path clip-rule="evenodd" d="m18.2868 4.51783c3.3599 3.27001 3.7311 8.03927.3712 11.89877-2.7316 3.1377-4.389 4.4645-4.9134 4.8511-.0849.0626-.1671.129-.2492.1954-.0328.0266-.0657.0532-.0987.0795-.8322.6634-2.0337.648-2.8488-.0462-.0163-.0139-.0325-.0278-.0487-.0417-.059-.0506-.1176-.1009-.1792-.1488-.50148-.3903-2.54988-2.048-4.98928-4.9011-2.81338-3.2905-3.00475-8.63397.34907-11.89806 3.47819-3.38514 9.12261-3.38017 12.60701.01109zm-2.9548 6.36787c0 1.8462-1.4967 3.3429-3.343 3.3429-1.8462 0-3.34293-1.4967-3.34293-3.3429 0-1.84629 1.49673-3.34298 3.34293-3.34298 1.8463 0 3.343 1.49669 3.343 3.34298z" fill="#fff" fill-rule="evenodd"/></svg>