<!DOCTYPE svg PUBLIC "-//W3C//DTD SVG 1.1//EN" "http://www.w3.org/Graphics/SVG/1.1/DTD/svg11.dtd">
<!-- Uploaded to: SVG Repo, www.svgrepo.com, Transformed by: SVG Repo Mixer Tools -->
<svg fill="#ffffff" height="800px" width="800px" version="1.1" id="Layer_1" xmlns="http://www.w3.org/2000/svg" xmlns:xlink="http://www.w3.org/1999/xlink" viewBox="0 0 511.462 511.462" xml:space="preserve" stroke="#ffffff">
<g id="SVGRepo_bgCarrier" stroke-width="0"/>
<g id="SVGRepo_tracerCarrier" stroke-linecap="round" stroke-linejoin="round"/>
<g id="SVGRepo_iconCarrier"> <g> <g> <g> <path d="M316.477,442.038H194.985c-4.79,0-8.678,3.888-8.678,8.678s3.888,8.678,8.678,8.678h121.492 c4.79,0,8.678-3.888,8.678-8.678S321.267,442.038,316.477,442.038z"/> <path d="M316.477,407.326H194.985c-4.79,0-8.678,3.888-8.678,8.678s3.888,8.678,8.678,8.678h121.492 c4.79,0,8.678-3.888,8.678-8.678S321.267,407.326,316.477,407.326z"/> <path d="M347.197,171.902l-1.77-1.128c-9.789-81.512-30.442-125.9-48.588-149.704C286.616,7.654,271.152,0,254.36,0h-0.495 c-17.044,0.156-32.62,8.14-42.739,21.929c-17.035,23.188-36.421,67.081-45.551,149.131l-1.31,0.842 c-29.661,19.013-47.382,51.33-47.382,86.433v140.132c0,62.308,50.688,112.996,112.996,112.996h51.703 c62.308,0,112.996-50.688,112.996-112.996V258.334C394.578,223.232,376.858,190.915,347.197,171.902z M377.223,398.466 c0,52.736-42.904,95.64-95.64,95.64h-51.703c-52.736,0-95.64-42.904-95.64-95.64V258.334c0-24.81,10.657-47.946,29.028-64.026 c-0.113,1.371-0.182,2.82-0.286,4.2c0,0.035-0.009,0.061-0.009,0.095c-0.512,6.977-0.946,14.136-1.31,21.443 c-0.104,1.901-0.182,3.836-0.269,5.771c-0.269,5.901-0.477,11.897-0.642,17.989c-0.061,2.326-0.139,4.608-0.191,6.977 c-0.174,8.261-0.286,16.636-0.286,25.209v8.053c0,44.058,35.831,79.889,79.889,79.889h31.137 c44.058,0,79.889-35.831,79.889-79.889v-8.053c0-8.47-0.122-16.748-0.304-24.932c-0.061-2.629-0.156-5.172-0.234-7.749 c-0.165-5.536-0.365-10.995-0.625-16.384c-0.122-2.56-0.243-5.103-0.382-7.602c-0.321-5.788-0.703-11.455-1.128-17.052 c-0.113-1.527-0.217-3.107-0.338-4.617c-0.095-1.18-0.165-2.43-0.26-3.601c18.536,16.098,29.305,39.346,29.305,64.278V398.466z"/> </g> </g> </g> </g>
</svg>